<svg xmlns="http://www.w3.org/2000/svg" viewBox="0 0 339.32 339.32"><defs><style>.cls-1{fill:#231f20;}.cls-2{fill:#fff;}</style></defs><title>Asset 1</title><g id="Layer_2" data-name="Layer 2"><g id="Layer_1-2" data-name="Layer 1"><path class="cls-1" d="M169.66,339.32C76.11,339.32,0,263.21,0,169.66S76.11,0,169.66,0,339.32,76.11,339.32,169.66,263.21,339.32,169.66,339.32Zm0-328.32C82.17,11,11,82.17,11,169.66S82.17,328.32,169.66,328.32s158.66-71.17,158.66-158.66S257.15,11,169.66,11Z"/><path class="cls-1" d="M107.3,127.24a2.82,2.82,0,0,1,2.86-2.86H129a2.58,2.58,0,0,1,0,5.16H113v8.8h13.92a2.59,2.59,0,0,1,0,5.17H113v10.55a2.84,2.84,0,0,1-5.67,0Z"/><path class="cls-1" d="M158.37,103.54V77a2.82,2.82,0,0,1,2.86-2.86H180a2.56,2.56,0,0,1,2.54,2.54A2.53,2.53,0,0,1,180,79.21H164V87.6h13.87a2.56,2.56,0,0,1,2.53,2.58,2.52,2.52,0,0,1-2.53,2.49H164v8.66h16.17a2.54,2.54,0,1,1,0,5.07h-19A2.82,2.82,0,0,1,158.37,103.54Z"/><path class="cls-1" d="M211.62,127.24a2.82,2.82,0,0,1,2.86-2.86h11.61c3.69,0,6.59,1,8.43,2.86a7.22,7.22,0,0,1,2.17,5.34v.1a7.69,7.69,0,0,1-4.61,7.19c3.78,1.29,6.4,3.45,6.4,7.83v.09c0,5.76-4.74,8.85-11.93,8.85H214.48a2.82,2.82,0,0,1-2.86-2.86ZM224.94,138c3.64,0,6.08-1.43,6.08-4.38v-.09c0-2.54-2-4.11-5.67-4.11H217.2V138Zm1.66,13.64c3.87,0,6.22-1.52,6.22-4.43v-.09c0-2.72-2.17-4.33-6.64-4.33h-9v8.85Z"/><path class="cls-1" d="M95.9,219a1.28,1.28,0,0,1-1.81,0h0a1.27,1.27,0,0,1,0-1.8L243.43,67.82a1.27,1.27,0,0,1,1.8,0h0a1.28,1.28,0,0,1,0,1.81Z"/><path class="cls-1" d="M243.43,219a1.27,1.27,0,0,0,1.8,0h0a1.27,1.27,0,0,0,0-1.8L95.9,67.82a1.28,1.28,0,0,0-1.81,0h0a1.28,1.28,0,0,0,0,1.81Z"/><path class="cls-1" d="M183.22,195.79c-.9,0-3.54-.06-4.56-.06-4.56,0-7.14,1.44-7.2,6.84-.06,1.32-.78,2-1.8,2s-1.74-.72-1.8-2c-.06-5.4-2.64-6.84-7.2-6.84-1,0-3.66.06-4.56.06-6.06,0-9.84-2.16-11.88-11.94a1.55,1.55,0,0,1,1.5-2,1.69,1.69,0,0,1,1.56,1.08c2.1,7.56,4.2,8.52,9.42,8.52,1.2,0,3.24-.06,4.5-.06,5,0,7.26,2.4,8.46,6.24,1.32-4,3.42-6.24,8.46-6.24,1.26,0,3.3.06,4.5.06,5.22,0,7.32-1,9.42-8.52a1.69,1.69,0,0,1,1.56-1.08,1.55,1.55,0,0,1,1.5,2C193.06,193.63,189.28,195.79,183.22,195.79Z"/><path class="cls-1" d="M104.17,229.15a1.6,1.6,0,0,1,1.62-1.62H114a1.47,1.47,0,1,1,0,2.94h-6.62v3.14h5.68a1.48,1.48,0,0,1,0,2.95h-5.68v4.2a1.62,1.62,0,1,1-3.24,0Z"/><path class="cls-1" d="M119.23,229.15a1.61,1.61,0,0,1,1.62-1.62H126a5.86,5.86,0,0,1,4.29,1.49,4.63,4.63,0,0,1,1.26,3.37v0a4.48,4.48,0,0,1-2.94,4.48l2.25,2.74a1.92,1.92,0,0,1,.52,1.24,1.5,1.5,0,0,1-1.53,1.49,1.92,1.92,0,0,1-1.6-.84l-3.16-4h-2.58v3.22a1.63,1.63,0,0,1-3.25,0Zm6.53,5.53c1.58,0,2.48-.84,2.48-2.08v0c0-1.39-1-2.11-2.55-2.11h-3.21v4.23Z"/><path class="cls-1" d="M135.06,234.94v-.05a7.62,7.62,0,0,1,7.85-7.61,7.54,7.54,0,0,1,7.81,7.57v0a7.83,7.83,0,0,1-15.66.05Zm12.27,0v-.05a4.48,4.48,0,0,0-4.46-4.63,4.41,4.41,0,0,0-4.42,4.59v0a4.47,4.47,0,0,0,4.46,4.63A4.4,4.4,0,0,0,147.33,234.94Z"/><path class="cls-1" d="M154.87,229.06a1.61,1.61,0,0,1,1.62-1.62h.34a2,2,0,0,1,1.68.95l6.25,8.21V229a1.6,1.6,0,1,1,3.2,0v11.72a1.61,1.61,0,0,1-1.62,1.62h-.11a2,2,0,0,1-1.68-.94l-6.48-8.51v7.89a1.6,1.6,0,0,1-3.2,0Z"/><path class="cls-1" d="M176.19,230.52h-3.12a1.5,1.5,0,0,1,0-3h9.47a1.5,1.5,0,1,1,0,3h-3.11v10.24a1.62,1.62,0,0,1-3.24,0Z"/><path class="cls-1" d="M187.66,240.64V229.15a1.61,1.61,0,0,1,1.62-1.62h8.16A1.46,1.46,0,0,1,198.9,229a1.44,1.44,0,0,1-1.46,1.43h-6.56v3h5.62a1.45,1.45,0,0,1,1.45,1.45,1.43,1.43,0,0,1-1.45,1.43h-5.62v3.1h6.67a1.45,1.45,0,0,1,1.45,1.45,1.43,1.43,0,0,1-1.45,1.43h-8.27A1.61,1.61,0,0,1,187.66,240.64Z"/><path class="cls-1" d="M203,229.06a1.61,1.61,0,0,1,1.62-1.62H205a2,2,0,0,1,1.69.95l6.24,8.21V229a1.6,1.6,0,0,1,3.2,0v11.72a1.6,1.6,0,0,1-1.62,1.62h-.1a2,2,0,0,1-1.69-.94l-6.48-8.51v7.89a1.6,1.6,0,0,1-3.2,0Z"/><path class="cls-1" d="M220.92,229.15a1.6,1.6,0,0,1,1.62-1.62h4.12c4.63,0,7.83,3.18,7.83,7.32v0c0,4.15-3.2,7.37-7.83,7.37h-4.12a1.61,1.61,0,0,1-1.62-1.62Zm5.74,10.18a4.2,4.2,0,0,0,4.44-4.39v-.05a4.23,4.23,0,0,0-4.44-4.44h-2.5v8.88Z"/><path class="cls-1" d="M104.31,248.22a.77.77,0,0,1,.75-.77h5a5,5,0,0,1,3.53,1.2,3,3,0,0,1,.87,2.16v0a3.27,3.27,0,0,1-2.14,3.13c1.6.48,2.89,1.41,2.89,3.26v0c0,2.31-1.95,3.68-4.9,3.68h-5.25a.77.77,0,0,1-.75-.77Zm5.5,5.26c1.83,0,3.11-.83,3.11-2.42v0c0-1.33-1.06-2.2-3-2.2h-4.12v4.66Zm.54,6.11c2.05,0,3.32-.9,3.32-2.41v0c0-1.46-1.24-2.31-3.59-2.31h-4.27v4.76Z"/><path class="cls-1" d="M119.19,255.31v-7.18a.77.77,0,1,1,1.53,0v7.08c0,2.92,1.56,4.56,4.13,4.56s4.07-1.51,4.07-4.46v-7.18a.77.77,0,0,1,.77-.77.76.76,0,0,1,.75.77v7.06c0,3.94-2.25,6-5.63,6S119.19,259.13,119.19,255.31Z"/><path class="cls-1" d="M134.61,254.25v0a6.81,6.81,0,0,1,6.84-7,7,7,0,0,1,4.82,1.76.81.81,0,0,1,.31.62.78.78,0,0,1-.77.75.88.88,0,0,1-.5-.18,5.55,5.55,0,0,0-3.88-1.54,5.3,5.3,0,0,0-5.23,5.54v0a5.33,5.33,0,0,0,5.23,5.58,5.51,5.51,0,0,0,4-1.64.7.7,0,0,1,.49-.22.76.76,0,0,1,.73.74.75.75,0,0,1-.25.54,7,7,0,0,1-5,2A6.74,6.74,0,0,1,134.61,254.25Z"/><path class="cls-1" d="M150.62,248.13a.76.76,0,0,1,.75-.77.77.77,0,0,1,.77.77v5.33h7.8v-5.33a.77.77,0,0,1,.77-.77.76.76,0,0,1,.75.77v12.16a.77.77,0,0,1-.75.77.78.78,0,0,1-.77-.77v-5.41h-7.8v5.41a.78.78,0,0,1-.77.77.77.77,0,0,1-.75-.77Z"/><path class="cls-1" d="M165.62,260l5.48-12a1,1,0,0,1,1-.67h.08a1,1,0,0,1,1,.67l5.48,12a1,1,0,0,1,.09.39.73.73,0,0,1-.73.73.82.82,0,0,1-.75-.56l-1.41-3.11h-7.41L167,260.54a.77.77,0,0,1-.74.52.69.69,0,0,1-.69-.69A.87.87,0,0,1,165.62,260Zm9.55-4-3.11-6.91L169,256Z"/><path class="cls-1" d="M182.74,248.22a.77.77,0,0,1,.75-.77h5.06a5.32,5.32,0,0,1,3.84,1.35,3.74,3.74,0,0,1,1,2.67v0c0,2.22-1.5,3.51-3.61,3.91l3.36,4.33a.85.85,0,0,1,.25.56.79.79,0,0,1-.77.75.87.87,0,0,1-.71-.4l-3.81-5h-3.88v4.58a.76.76,0,1,1-1.52,0Zm5.67,6.12c2,0,3.48-1,3.48-2.78v0c0-1.66-1.28-2.67-3.46-2.67h-4.17v5.48Z"/><path class="cls-1" d="M197.85,260.19v-12a.77.77,0,0,1,.76-.77H207a.7.7,0,1,1,0,1.39h-7.62v4.62h6.75a.7.7,0,1,1,0,1.39h-6.75v4.72h7.72a.69.69,0,0,1,.69.7.69.69,0,0,1-.69.69h-8.49A.77.77,0,0,1,197.85,260.19Z"/><path class="cls-1" d="M211.46,259.34a.69.69,0,0,1-.29-.58.74.74,0,0,1,.74-.75.67.67,0,0,1,.46.18,6.14,6.14,0,0,0,4.26,1.6c1.82,0,3-1,3-2.3v0c0-1.25-.68-2-3.52-2.57-3.1-.67-4.53-1.68-4.53-3.9v0c0-2.13,1.87-3.69,4.44-3.69a6.87,6.87,0,0,1,4.3,1.33.78.78,0,0,1,.33.62.73.73,0,0,1-.73.73.77.77,0,0,1-.45-.13,5.66,5.66,0,0,0-3.49-1.18c-1.76,0-2.88,1-2.88,2.18v0c0,1.27.7,2,3.67,2.63s4.4,1.75,4.4,3.82v0c0,2.31-1.93,3.82-4.61,3.82A7.9,7.9,0,0,1,211.46,259.34Z"/><path class="cls-1" d="M228.74,248.86h-3.92a.7.7,0,0,1-.71-.69.72.72,0,0,1,.71-.72h9.38a.72.72,0,0,1,.71.72.7.7,0,0,1-.71.69h-3.92v11.43a.77.77,0,0,1-1.54,0Z"/><text></text><rect class="cls-2" x="166.38" y="275.09" width="6.41" height="6.41" transform="translate(-147.11 201.42) rotate(-45)"/><path class="cls-1" d="M169.58,283.53l-5.24-5.24,5.24-5.23,5.24,5.23Zm-3.82-5.24,3.82,3.83,3.82-3.83-3.82-3.82Z"/><path class="cls-1" d="M209.2,278.29a.65.65,0,0,1-.65.65H181.49a.65.65,0,0,1-.65-.65h0a.65.65,0,0,1,.65-.65h27.06a.65.65,0,0,1,.65.65Z"/><path class="cls-1" d="M158.48,278.29a.65.65,0,0,1-.65.65H130.77a.65.65,0,0,1-.65-.65h0a.65.65,0,0,1,.65-.65h27.06a.65.65,0,0,1,.65.65Z"/></g></g></svg>